<mxfile host="app.diagrams.net" modified="2021-02-22T23:00:03.352Z" agent="5.0 (X11)" etag="n-TJ4TfXg3COCHpiXRMX" version="14.4.2" type="github">
  <diagram id="HNADNREHd5nHu-t70lIk" name="Page-1">
    <mxGraphModel dx="1289" dy="676" grid="0" gridSize="10" guides="1" tooltips="1" connect="1" arrows="1" fold="1" page="1" pageScale="1" pageWidth="850" pageHeight="1100" math="0" shadow="0">
      <root>
        <mxCell id="0" />
        <mxCell id="1" parent="0" />
        <mxCell id="zDqILAsVGFjcQcH5XZb_-1" value="" style="shape=table;html=1;whiteSpace=wrap;startSize=0;container=1;collapsible=0;childLayout=tableLayout;strokeColor=none;" vertex="1" parent="1">
          <mxGeometry x="488.5" y="218.75" width="265.5" height="186" as="geometry" />
        </mxCell>
        <mxCell id="zDqILAsVGFjcQcH5XZb_-2" value="" style="shape=partialRectangle;html=1;whiteSpace=wrap;collapsible=0;dropTarget=0;pointerEvents=0;fillColor=none;top=0;left=0;bottom=0;right=0;points=[[0,0.5],[1,0.5]];portConstraint=eastwest;" vertex="1" parent="zDqILAsVGFjcQcH5XZb_-1">
          <mxGeometry width="265.5" height="31" as="geometry" />
        </mxCell>
        <mxCell id="zDqILAsVGFjcQcH5XZb_-3" value="1" style="shape=partialRectangle;html=1;whiteSpace=wrap;connectable=0;overflow=hidden;fillColor=none;top=0;left=0;bottom=0;right=0;" vertex="1" parent="zDqILAsVGFjcQcH5XZb_-2">
          <mxGeometry width="30" height="31" as="geometry" />
        </mxCell>
        <mxCell id="zDqILAsVGFjcQcH5XZb_-4" value="" style="shape=partialRectangle;html=1;whiteSpace=wrap;connectable=0;overflow=hidden;fillColor=#dae8fc;top=0;left=0;bottom=0;right=0;strokeColor=#6c8ebf;" vertex="1" parent="zDqILAsVGFjcQcH5XZb_-2">
          <mxGeometry x="30" width="60" height="31" as="geometry" />
        </mxCell>
        <mxCell id="zDqILAsVGFjcQcH5XZb_-5" value="" style="shape=partialRectangle;html=1;whiteSpace=wrap;connectable=0;overflow=hidden;top=0;left=0;bottom=0;right=0;perimeterSpacing=0;" vertex="1" parent="zDqILAsVGFjcQcH5XZb_-2">
          <mxGeometry x="90" width="61" height="31" as="geometry" />
        </mxCell>
        <mxCell id="zDqILAsVGFjcQcH5XZb_-6" value="" style="shape=partialRectangle;html=1;whiteSpace=wrap;connectable=0;overflow=hidden;fillColor=none;top=0;left=0;bottom=0;right=0;" vertex="1" parent="zDqILAsVGFjcQcH5XZb_-2">
          <mxGeometry x="151" width="59" height="31" as="geometry" />
        </mxCell>
        <mxCell id="zDqILAsVGFjcQcH5XZb_-7" value="" style="shape=partialRectangle;html=1;whiteSpace=wrap;connectable=0;overflow=hidden;fillColor=none;top=0;left=0;bottom=0;right=0;" vertex="1" parent="zDqILAsVGFjcQcH5XZb_-2">
          <mxGeometry x="210" width="56" height="31" as="geometry" />
        </mxCell>
        <mxCell id="zDqILAsVGFjcQcH5XZb_-8" value="" style="shape=partialRectangle;html=1;whiteSpace=wrap;collapsible=0;dropTarget=0;pointerEvents=0;fillColor=none;top=0;left=0;bottom=0;right=0;points=[[0,0.5],[1,0.5]];portConstraint=eastwest;" vertex="1" parent="zDqILAsVGFjcQcH5XZb_-1">
          <mxGeometry y="31" width="265.5" height="32" as="geometry" />
        </mxCell>
        <mxCell id="zDqILAsVGFjcQcH5XZb_-9" value="2" style="shape=partialRectangle;html=1;whiteSpace=wrap;connectable=0;overflow=hidden;fillColor=none;top=0;left=0;bottom=0;right=0;strokeColor=none;" vertex="1" parent="zDqILAsVGFjcQcH5XZb_-8">
          <mxGeometry width="30" height="32" as="geometry" />
        </mxCell>
        <mxCell id="zDqILAsVGFjcQcH5XZb_-10" value="20-30&lt;span class=&quot;aCOpRe&quot;&gt;&lt;span&gt;Â°C&lt;/span&gt;&lt;/span&gt;" style="shape=partialRectangle;html=1;whiteSpace=wrap;connectable=0;overflow=hidden;fillColor=#f8cecc;top=0;left=0;bottom=0;right=0;strokeColor=none;" vertex="1" parent="zDqILAsVGFjcQcH5XZb_-8">
          <mxGeometry x="30" width="60" height="32" as="geometry" />
        </mxCell>
        <mxCell id="zDqILAsVGFjcQcH5XZb_-11" value="" style="shape=partialRectangle;html=1;whiteSpace=wrap;connectable=0;overflow=hidden;top=0;left=0;bottom=0;right=0;" vertex="1" parent="zDqILAsVGFjcQcH5XZb_-8">
          <mxGeometry x="90" width="61" height="32" as="geometry" />
        </mxCell>
        <mxCell id="zDqILAsVGFjcQcH5XZb_-12" value="" style="shape=partialRectangle;html=1;whiteSpace=wrap;connectable=0;overflow=hidden;fillColor=none;top=0;left=0;bottom=0;right=0;" vertex="1" parent="zDqILAsVGFjcQcH5XZb_-8">
          <mxGeometry x="151" width="59" height="32" as="geometry" />
        </mxCell>
        <mxCell id="zDqILAsVGFjcQcH5XZb_-13" value="" style="shape=partialRectangle;html=1;whiteSpace=wrap;connectable=0;overflow=hidden;fillColor=none;top=0;left=0;bottom=0;right=0;" vertex="1" parent="zDqILAsVGFjcQcH5XZb_-8">
          <mxGeometry x="210" width="56" height="32" as="geometry" />
        </mxCell>
        <mxCell id="zDqILAsVGFjcQcH5XZb_-14" value="" style="shape=partialRectangle;html=1;whiteSpace=wrap;collapsible=0;dropTarget=0;pointerEvents=0;fillColor=none;top=0;left=0;bottom=0;right=0;points=[[0,0.5],[1,0.5]];portConstraint=eastwest;" vertex="1" parent="zDqILAsVGFjcQcH5XZb_-1">
          <mxGeometry y="63" width="265.5" height="29" as="geometry" />
        </mxCell>
        <mxCell id="zDqILAsVGFjcQcH5XZb_-15" value="3" style="shape=partialRectangle;html=1;whiteSpace=wrap;connectable=0;overflow=hidden;fillColor=none;top=0;left=0;bottom=0;right=0;strokeColor=none;" vertex="1" parent="zDqILAsVGFjcQcH5XZb_-14">
          <mxGeometry width="30" height="29" as="geometry" />
        </mxCell>
        <mxCell id="zDqILAsVGFjcQcH5XZb_-16" value="" style="shape=partialRectangle;html=1;whiteSpace=wrap;connectable=0;overflow=hidden;fillColor=#dae8fc;top=0;left=0;bottom=0;right=0;strokeColor=#6c8ebf;" vertex="1" parent="zDqILAsVGFjcQcH5XZb_-14">
          <mxGeometry x="30" width="60" height="29" as="geometry" />
        </mxCell>
        <mxCell id="zDqILAsVGFjcQcH5XZb_-17" value="" style="shape=partialRectangle;html=1;whiteSpace=wrap;connectable=0;overflow=hidden;fillColor=#dae8fc;top=0;left=0;bottom=0;right=0;strokeColor=#6c8ebf;" vertex="1" parent="zDqILAsVGFjcQcH5XZb_-14">
          <mxGeometry x="90" width="61" height="29" as="geometry" />
        </mxCell>
        <mxCell id="zDqILAsVGFjcQcH5XZb_-18" value="" style="shape=partialRectangle;html=1;whiteSpace=wrap;connectable=0;overflow=hidden;fillColor=#dae8fc;top=0;left=0;bottom=0;right=0;strokeColor=#6c8ebf;" vertex="1" parent="zDqILAsVGFjcQcH5XZb_-14">
          <mxGeometry x="151" width="59" height="29" as="geometry" />
        </mxCell>
        <mxCell id="zDqILAsVGFjcQcH5XZb_-19" value="" style="shape=partialRectangle;html=1;whiteSpace=wrap;connectable=0;overflow=hidden;fillColor=#dae8fc;top=0;left=0;bottom=0;right=0;strokeColor=#6c8ebf;" vertex="1" parent="zDqILAsVGFjcQcH5XZb_-14">
          <mxGeometry x="210" width="56" height="29" as="geometry" />
        </mxCell>
        <mxCell id="zDqILAsVGFjcQcH5XZb_-20" value="" style="shape=partialRectangle;html=1;whiteSpace=wrap;collapsible=0;dropTarget=0;pointerEvents=0;fillColor=none;top=0;left=0;bottom=0;right=0;points=[[0,0.5],[1,0.5]];portConstraint=eastwest;" vertex="1" parent="zDqILAsVGFjcQcH5XZb_-1">
          <mxGeometry y="92" width="265.5" height="32" as="geometry" />
        </mxCell>
        <mxCell id="zDqILAsVGFjcQcH5XZb_-21" value="4" style="shape=partialRectangle;html=1;whiteSpace=wrap;connectable=0;overflow=hidden;fillColor=none;top=0;left=0;bottom=0;right=0;strokeColor=none;" vertex="1" parent="zDqILAsVGFjcQcH5XZb_-20">
          <mxGeometry width="30" height="32" as="geometry" />
        </mxCell>
        <mxCell id="zDqILAsVGFjcQcH5XZb_-22" value="" style="shape=partialRectangle;html=1;whiteSpace=wrap;connectable=0;overflow=hidden;fillColor=#f8cecc;top=0;left=0;bottom=0;right=0;strokeColor=#b85450;" vertex="1" parent="zDqILAsVGFjcQcH5XZb_-20">
          <mxGeometry x="30" width="60" height="32" as="geometry" />
        </mxCell>
        <mxCell id="zDqILAsVGFjcQcH5XZb_-23" value="" style="shape=partialRectangle;html=1;whiteSpace=wrap;connectable=0;overflow=hidden;fillColor=#f8cecc;top=0;left=0;bottom=0;right=0;strokeColor=#b85450;" vertex="1" parent="zDqILAsVGFjcQcH5XZb_-20">
          <mxGeometry x="90" width="61" height="32" as="geometry" />
        </mxCell>
        <mxCell id="zDqILAsVGFjcQcH5XZb_-24" value="" style="shape=partialRectangle;html=1;whiteSpace=wrap;connectable=0;overflow=hidden;fillColor=#f8cecc;top=0;left=0;bottom=0;right=0;strokeColor=#b85450;" vertex="1" parent="zDqILAsVGFjcQcH5XZb_-20">
          <mxGeometry x="151" width="59" height="32" as="geometry" />
        </mxCell>
        <mxCell id="zDqILAsVGFjcQcH5XZb_-25" value="" style="shape=partialRectangle;html=1;whiteSpace=wrap;connectable=0;overflow=hidden;fillColor=#f8cecc;top=0;left=0;bottom=0;right=0;strokeColor=#b85450;" vertex="1" parent="zDqILAsVGFjcQcH5XZb_-20">
          <mxGeometry x="210" width="56" height="32" as="geometry" />
        </mxCell>
        <mxCell id="zDqILAsVGFjcQcH5XZb_-26" value="" style="shape=partialRectangle;html=1;whiteSpace=wrap;collapsible=0;dropTarget=0;pointerEvents=0;fillColor=none;top=0;left=0;bottom=0;right=0;points=[[0,0.5],[1,0.5]];portConstraint=eastwest;" vertex="1" parent="zDqILAsVGFjcQcH5XZb_-1">
          <mxGeometry y="124" width="265.5" height="30" as="geometry" />
        </mxCell>
        <mxCell id="zDqILAsVGFjcQcH5XZb_-27" value="5" style="shape=partialRectangle;html=1;whiteSpace=wrap;connectable=0;overflow=hidden;fillColor=none;top=0;left=0;bottom=0;right=0;strokeColor=none;" vertex="1" parent="zDqILAsVGFjcQcH5XZb_-26">
          <mxGeometry width="30" height="30" as="geometry" />
        </mxCell>
        <mxCell id="zDqILAsVGFjcQcH5XZb_-28" value="" style="shape=partialRectangle;html=1;whiteSpace=wrap;connectable=0;overflow=hidden;fillColor=none;top=0;left=0;bottom=0;right=0;" vertex="1" parent="zDqILAsVGFjcQcH5XZb_-26">
          <mxGeometry x="30" width="60" height="30" as="geometry" />
        </mxCell>
        <mxCell id="zDqILAsVGFjcQcH5XZb_-29" value="" style="shape=partialRectangle;html=1;whiteSpace=wrap;connectable=0;overflow=hidden;fillColor=none;top=0;left=0;bottom=0;right=0;" vertex="1" parent="zDqILAsVGFjcQcH5XZb_-26">
          <mxGeometry x="90" width="61" height="30" as="geometry" />
        </mxCell>
        <mxCell id="zDqILAsVGFjcQcH5XZb_-30" value="" style="shape=partialRectangle;html=1;whiteSpace=wrap;connectable=0;overflow=hidden;fillColor=none;top=0;left=0;bottom=0;right=0;" vertex="1" parent="zDqILAsVGFjcQcH5XZb_-26">
          <mxGeometry x="151" width="59" height="30" as="geometry" />
        </mxCell>
        <mxCell id="zDqILAsVGFjcQcH5XZb_-31" value="" style="shape=partialRectangle;html=1;whiteSpace=wrap;connectable=0;overflow=hidden;fillColor=none;top=0;left=0;bottom=0;right=0;" vertex="1" parent="zDqILAsVGFjcQcH5XZb_-26">
          <mxGeometry x="210" width="56" height="30" as="geometry" />
        </mxCell>
        <mxCell id="zDqILAsVGFjcQcH5XZb_-32" value="" style="shape=partialRectangle;html=1;whiteSpace=wrap;collapsible=0;dropTarget=0;pointerEvents=0;fillColor=none;top=0;left=0;bottom=0;right=0;points=[[0,0.5],[1,0.5]];portConstraint=eastwest;" vertex="1" parent="zDqILAsVGFjcQcH5XZb_-1">
          <mxGeometry y="154" width="265.5" height="32" as="geometry" />
        </mxCell>
        <mxCell id="zDqILAsVGFjcQcH5XZb_-33" value="6" style="shape=partialRectangle;html=1;whiteSpace=wrap;connectable=0;overflow=hidden;fillColor=none;top=0;left=0;bottom=0;right=0;strokeColor=none;" vertex="1" parent="zDqILAsVGFjcQcH5XZb_-32">
          <mxGeometry width="30" height="32" as="geometry" />
        </mxCell>
        <mxCell id="zDqILAsVGFjcQcH5XZb_-34" value="" style="shape=partialRectangle;html=1;whiteSpace=wrap;connectable=0;overflow=hidden;fillColor=none;top=0;left=0;bottom=0;right=0;" vertex="1" parent="zDqILAsVGFjcQcH5XZb_-32">
          <mxGeometry x="30" width="60" height="32" as="geometry" />
        </mxCell>
        <mxCell id="zDqILAsVGFjcQcH5XZb_-35" value="" style="shape=partialRectangle;html=1;whiteSpace=wrap;connectable=0;overflow=hidden;fillColor=none;top=0;left=0;bottom=0;right=0;" vertex="1" parent="zDqILAsVGFjcQcH5XZb_-32">
          <mxGeometry x="90" width="61" height="32" as="geometry" />
        </mxCell>
        <mxCell id="zDqILAsVGFjcQcH5XZb_-36" value="" style="shape=partialRectangle;html=1;whiteSpace=wrap;connectable=0;overflow=hidden;fillColor=none;top=0;left=0;bottom=0;right=0;" vertex="1" parent="zDqILAsVGFjcQcH5XZb_-32">
          <mxGeometry x="151" width="59" height="32" as="geometry" />
        </mxCell>
        <mxCell id="zDqILAsVGFjcQcH5XZb_-37" value="" style="shape=partialRectangle;html=1;whiteSpace=wrap;connectable=0;overflow=hidden;fillColor=none;top=0;left=0;bottom=0;right=0;" vertex="1" parent="zDqILAsVGFjcQcH5XZb_-32">
          <mxGeometry x="210" width="56" height="32" as="geometry" />
        </mxCell>
        <mxCell id="zDqILAsVGFjcQcH5XZb_-38" value="4&lt;span class=&quot;aCOpRe&quot;&gt;&lt;span&gt;Â°C &lt;br&gt;&lt;/span&gt;&lt;/span&gt;" style="rounded=0;whiteSpace=wrap;html=1;shadow=0;sketch=0;strokeWidth=1;fillColor=none;" vertex="1" parent="1">
          <mxGeometry x="518.5" y="281.75" width="235.5" height="30" as="geometry" />
        </mxCell>
        <mxCell id="zDqILAsVGFjcQcH5XZb_-39" value="20-30&lt;span class=&quot;aCOpRe&quot;&gt;&lt;span&gt;Â°C&lt;/span&gt;&lt;/span&gt;" style="rounded=0;whiteSpace=wrap;html=1;shadow=0;sketch=0;strokeWidth=1;fillColor=none;" vertex="1" parent="1">
          <mxGeometry x="518.5" y="312.25" width="235.5" height="30" as="geometry" />
        </mxCell>
        <mxCell id="zDqILAsVGFjcQcH5XZb_-40" value="" style="shape=table;html=1;whiteSpace=wrap;startSize=0;container=1;collapsible=0;childLayout=tableLayout;strokeColor=none;" vertex="1" parent="1">
          <mxGeometry x="112.5" y="220" width="270" height="217" as="geometry" />
        </mxCell>
        <mxCell id="zDqILAsVGFjcQcH5XZb_-41" value="" style="shape=partialRectangle;html=1;whiteSpace=wrap;collapsible=0;dropTarget=0;pointerEvents=0;fillColor=none;top=0;left=0;bottom=0;right=0;points=[[0,0.5],[1,0.5]];portConstraint=eastwest;" vertex="1" parent="zDqILAsVGFjcQcH5XZb_-40">
          <mxGeometry width="270" height="31" as="geometry" />
        </mxCell>
        <mxCell id="zDqILAsVGFjcQcH5XZb_-42" value="1" style="shape=partialRectangle;html=1;whiteSpace=wrap;connectable=0;overflow=hidden;fillColor=none;top=0;left=0;bottom=0;right=0;" vertex="1" parent="zDqILAsVGFjcQcH5XZb_-41">
          <mxGeometry width="30" height="31" as="geometry" />
        </mxCell>
        <mxCell id="zDqILAsVGFjcQcH5XZb_-43" value="" style="shape=partialRectangle;html=1;whiteSpace=wrap;connectable=0;overflow=hidden;fillColor=#dae8fc;top=0;left=0;bottom=0;right=0;strokeColor=#6c8ebf;" vertex="1" parent="zDqILAsVGFjcQcH5XZb_-41">
          <mxGeometry x="30" width="60" height="31" as="geometry" />
        </mxCell>
        <mxCell id="zDqILAsVGFjcQcH5XZb_-44" value="" style="shape=partialRectangle;html=1;whiteSpace=wrap;connectable=0;overflow=hidden;fillColor=#dae8fc;top=0;left=0;bottom=0;right=0;strokeColor=#6c8ebf;perimeterSpacing=0;" vertex="1" parent="zDqILAsVGFjcQcH5XZb_-41">
          <mxGeometry x="90" width="60" height="31" as="geometry" />
        </mxCell>
        <mxCell id="zDqILAsVGFjcQcH5XZb_-45" value="" style="shape=partialRectangle;html=1;whiteSpace=wrap;connectable=0;overflow=hidden;fillColor=none;top=0;left=0;bottom=0;right=0;" vertex="1" parent="zDqILAsVGFjcQcH5XZb_-41">
          <mxGeometry x="150" width="60" height="31" as="geometry" />
        </mxCell>
        <mxCell id="zDqILAsVGFjcQcH5XZb_-46" value="" style="shape=partialRectangle;html=1;whiteSpace=wrap;connectable=0;overflow=hidden;fillColor=none;top=0;left=0;bottom=0;right=0;" vertex="1" parent="zDqILAsVGFjcQcH5XZb_-41">
          <mxGeometry x="210" width="60" height="31" as="geometry" />
        </mxCell>
        <mxCell id="zDqILAsVGFjcQcH5XZb_-47" value="" style="shape=partialRectangle;html=1;whiteSpace=wrap;collapsible=0;dropTarget=0;pointerEvents=0;fillColor=none;top=0;left=0;bottom=0;right=0;points=[[0,0.5],[1,0.5]];portConstraint=eastwest;" vertex="1" parent="zDqILAsVGFjcQcH5XZb_-40">
          <mxGeometry y="31" width="270" height="32" as="geometry" />
        </mxCell>
        <mxCell id="zDqILAsVGFjcQcH5XZb_-48" value="2" style="shape=partialRectangle;html=1;whiteSpace=wrap;connectable=0;overflow=hidden;fillColor=none;top=0;left=0;bottom=0;right=0;strokeColor=none;" vertex="1" parent="zDqILAsVGFjcQcH5XZb_-47">
          <mxGeometry width="30" height="32" as="geometry" />
        </mxCell>
        <mxCell id="zDqILAsVGFjcQcH5XZb_-49" value="20-30&lt;span class=&quot;aCOpRe&quot;&gt;&lt;span&gt;Â°C&lt;/span&gt;&lt;/span&gt;" style="shape=partialRectangle;html=1;whiteSpace=wrap;connectable=0;overflow=hidden;fillColor=#f8cecc;top=0;left=0;bottom=0;right=0;strokeColor=none;" vertex="1" parent="zDqILAsVGFjcQcH5XZb_-47">
          <mxGeometry x="30" width="60" height="32" as="geometry" />
        </mxCell>
        <mxCell id="zDqILAsVGFjcQcH5XZb_-50" value="4&lt;span class=&quot;aCOpRe&quot;&gt;&lt;span&gt;Â°C&lt;/span&gt;&lt;/span&gt;" style="shape=partialRectangle;html=1;whiteSpace=wrap;connectable=0;overflow=hidden;fillColor=#dae8fc;top=0;left=0;bottom=0;right=0;strokeColor=#6c8ebf;" vertex="1" parent="zDqILAsVGFjcQcH5XZb_-47">
          <mxGeometry x="90" width="60" height="32" as="geometry" />
        </mxCell>
        <mxCell id="zDqILAsVGFjcQcH5XZb_-51" value="" style="shape=partialRectangle;html=1;whiteSpace=wrap;connectable=0;overflow=hidden;fillColor=none;top=0;left=0;bottom=0;right=0;" vertex="1" parent="zDqILAsVGFjcQcH5XZb_-47">
          <mxGeometry x="150" width="60" height="32" as="geometry" />
        </mxCell>
        <mxCell id="zDqILAsVGFjcQcH5XZb_-52" value="" style="shape=partialRectangle;html=1;whiteSpace=wrap;connectable=0;overflow=hidden;fillColor=none;top=0;left=0;bottom=0;right=0;" vertex="1" parent="zDqILAsVGFjcQcH5XZb_-47">
          <mxGeometry x="210" width="60" height="32" as="geometry" />
        </mxCell>
        <mxCell id="zDqILAsVGFjcQcH5XZb_-53" value="" style="shape=partialRectangle;html=1;whiteSpace=wrap;collapsible=0;dropTarget=0;pointerEvents=0;fillColor=none;top=0;left=0;bottom=0;right=0;points=[[0,0.5],[1,0.5]];portConstraint=eastwest;" vertex="1" parent="zDqILAsVGFjcQcH5XZb_-40">
          <mxGeometry y="63" width="270" height="29" as="geometry" />
        </mxCell>
        <mxCell id="zDqILAsVGFjcQcH5XZb_-54" value="3" style="shape=partialRectangle;html=1;whiteSpace=wrap;connectable=0;overflow=hidden;fillColor=none;top=0;left=0;bottom=0;right=0;strokeColor=none;" vertex="1" parent="zDqILAsVGFjcQcH5XZb_-53">
          <mxGeometry width="30" height="29" as="geometry" />
        </mxCell>
        <mxCell id="zDqILAsVGFjcQcH5XZb_-55" value="" style="shape=partialRectangle;html=1;whiteSpace=wrap;connectable=0;overflow=hidden;fillColor=#dae8fc;top=0;left=0;bottom=0;right=0;strokeColor=#6c8ebf;" vertex="1" parent="zDqILAsVGFjcQcH5XZb_-53">
          <mxGeometry x="30" width="60" height="29" as="geometry" />
        </mxCell>
        <mxCell id="zDqILAsVGFjcQcH5XZb_-56" value="" style="shape=partialRectangle;html=1;whiteSpace=wrap;connectable=0;overflow=hidden;fillColor=#dae8fc;top=0;left=0;bottom=0;right=0;strokeColor=#6c8ebf;" vertex="1" parent="zDqILAsVGFjcQcH5XZb_-53">
          <mxGeometry x="90" width="60" height="29" as="geometry" />
        </mxCell>
        <mxCell id="zDqILAsVGFjcQcH5XZb_-57" value="" style="shape=partialRectangle;html=1;whiteSpace=wrap;connectable=0;overflow=hidden;fillColor=#dae8fc;top=0;left=0;bottom=0;right=0;strokeColor=#6c8ebf;" vertex="1" parent="zDqILAsVGFjcQcH5XZb_-53">
          <mxGeometry x="150" width="60" height="29" as="geometry" />
        </mxCell>
        <mxCell id="zDqILAsVGFjcQcH5XZb_-58" value="" style="shape=partialRectangle;html=1;whiteSpace=wrap;connectable=0;overflow=hidden;fillColor=none;top=0;left=0;bottom=0;right=0;" vertex="1" parent="zDqILAsVGFjcQcH5XZb_-53">
          <mxGeometry x="210" width="60" height="29" as="geometry" />
        </mxCell>
        <mxCell id="zDqILAsVGFjcQcH5XZb_-59" value="" style="shape=partialRectangle;html=1;whiteSpace=wrap;collapsible=0;dropTarget=0;pointerEvents=0;fillColor=none;top=0;left=0;bottom=0;right=0;points=[[0,0.5],[1,0.5]];portConstraint=eastwest;" vertex="1" parent="zDqILAsVGFjcQcH5XZb_-40">
          <mxGeometry y="92" width="270" height="32" as="geometry" />
        </mxCell>
        <mxCell id="zDqILAsVGFjcQcH5XZb_-60" value="4" style="shape=partialRectangle;html=1;whiteSpace=wrap;connectable=0;overflow=hidden;fillColor=none;top=0;left=0;bottom=0;right=0;strokeColor=none;" vertex="1" parent="zDqILAsVGFjcQcH5XZb_-59">
          <mxGeometry width="30" height="32" as="geometry" />
        </mxCell>
        <mxCell id="zDqILAsVGFjcQcH5XZb_-61" value="" style="shape=partialRectangle;html=1;whiteSpace=wrap;connectable=0;overflow=hidden;fillColor=#f8cecc;top=0;left=0;bottom=0;right=0;strokeColor=#b85450;" vertex="1" parent="zDqILAsVGFjcQcH5XZb_-59">
          <mxGeometry x="30" width="60" height="32" as="geometry" />
        </mxCell>
        <mxCell id="zDqILAsVGFjcQcH5XZb_-62" value="" style="shape=partialRectangle;html=1;whiteSpace=wrap;connectable=0;overflow=hidden;fillColor=#f8cecc;top=0;left=0;bottom=0;right=0;strokeColor=#b85450;" vertex="1" parent="zDqILAsVGFjcQcH5XZb_-59">
          <mxGeometry x="90" width="60" height="32" as="geometry" />
        </mxCell>
        <mxCell id="zDqILAsVGFjcQcH5XZb_-63" value="4&lt;span class=&quot;aCOpRe&quot;&gt;&lt;span&gt;Â°C&lt;/span&gt;&lt;/span&gt;" style="shape=partialRectangle;html=1;whiteSpace=wrap;connectable=0;overflow=hidden;fillColor=#dae8fc;top=0;left=0;bottom=0;right=0;strokeColor=#6c8ebf;" vertex="1" parent="zDqILAsVGFjcQcH5XZb_-59">
          <mxGeometry x="150" width="60" height="32" as="geometry" />
        </mxCell>
        <mxCell id="zDqILAsVGFjcQcH5XZb_-64" value="" style="shape=partialRectangle;html=1;whiteSpace=wrap;connectable=0;overflow=hidden;fillColor=none;top=0;left=0;bottom=0;right=0;" vertex="1" parent="zDqILAsVGFjcQcH5XZb_-59">
          <mxGeometry x="210" width="60" height="32" as="geometry" />
        </mxCell>
        <mxCell id="zDqILAsVGFjcQcH5XZb_-65" value="" style="shape=partialRectangle;html=1;whiteSpace=wrap;collapsible=0;dropTarget=0;pointerEvents=0;fillColor=none;top=0;left=0;bottom=0;right=0;points=[[0,0.5],[1,0.5]];portConstraint=eastwest;" vertex="1" parent="zDqILAsVGFjcQcH5XZb_-40">
          <mxGeometry y="124" width="270" height="30" as="geometry" />
        </mxCell>
        <mxCell id="zDqILAsVGFjcQcH5XZb_-66" value="5" style="shape=partialRectangle;html=1;whiteSpace=wrap;connectable=0;overflow=hidden;fillColor=none;top=0;left=0;bottom=0;right=0;strokeColor=none;" vertex="1" parent="zDqILAsVGFjcQcH5XZb_-65">
          <mxGeometry width="30" height="30" as="geometry" />
        </mxCell>
        <mxCell id="zDqILAsVGFjcQcH5XZb_-67" value="" style="shape=partialRectangle;html=1;whiteSpace=wrap;connectable=0;overflow=hidden;fillColor=none;top=0;left=0;bottom=0;right=0;" vertex="1" parent="zDqILAsVGFjcQcH5XZb_-65">
          <mxGeometry x="30" width="60" height="30" as="geometry" />
        </mxCell>
        <mxCell id="zDqILAsVGFjcQcH5XZb_-68" value="" style="shape=partialRectangle;html=1;whiteSpace=wrap;connectable=0;overflow=hidden;fillColor=none;top=0;left=0;bottom=0;right=0;" vertex="1" parent="zDqILAsVGFjcQcH5XZb_-65">
          <mxGeometry x="90" width="60" height="30" as="geometry" />
        </mxCell>
        <mxCell id="zDqILAsVGFjcQcH5XZb_-69" value="" style="shape=partialRectangle;html=1;whiteSpace=wrap;connectable=0;overflow=hidden;fillColor=none;top=0;left=0;bottom=0;right=0;" vertex="1" parent="zDqILAsVGFjcQcH5XZb_-65">
          <mxGeometry x="150" width="60" height="30" as="geometry" />
        </mxCell>
        <mxCell id="zDqILAsVGFjcQcH5XZb_-70" value="" style="shape=partialRectangle;html=1;whiteSpace=wrap;connectable=0;overflow=hidden;fillColor=none;top=0;left=0;bottom=0;right=0;" vertex="1" parent="zDqILAsVGFjcQcH5XZb_-65">
          <mxGeometry x="210" width="60" height="30" as="geometry" />
        </mxCell>
        <mxCell id="zDqILAsVGFjcQcH5XZb_-71" value="" style="shape=partialRectangle;html=1;whiteSpace=wrap;collapsible=0;dropTarget=0;pointerEvents=0;fillColor=none;top=0;left=0;bottom=0;right=0;points=[[0,0.5],[1,0.5]];portConstraint=eastwest;" vertex="1" parent="zDqILAsVGFjcQcH5XZb_-40">
          <mxGeometry y="154" width="270" height="32" as="geometry" />
        </mxCell>
        <mxCell id="zDqILAsVGFjcQcH5XZb_-72" value="6" style="shape=partialRectangle;html=1;whiteSpace=wrap;connectable=0;overflow=hidden;fillColor=none;top=0;left=0;bottom=0;right=0;strokeColor=none;" vertex="1" parent="zDqILAsVGFjcQcH5XZb_-71">
          <mxGeometry width="30" height="32" as="geometry" />
        </mxCell>
        <mxCell id="zDqILAsVGFjcQcH5XZb_-73" value="" style="shape=partialRectangle;html=1;whiteSpace=wrap;connectable=0;overflow=hidden;fillColor=none;top=0;left=0;bottom=0;right=0;" vertex="1" parent="zDqILAsVGFjcQcH5XZb_-71">
          <mxGeometry x="30" width="60" height="32" as="geometry" />
        </mxCell>
        <mxCell id="zDqILAsVGFjcQcH5XZb_-74" value="" style="shape=partialRectangle;html=1;whiteSpace=wrap;connectable=0;overflow=hidden;fillColor=none;top=0;left=0;bottom=0;right=0;" vertex="1" parent="zDqILAsVGFjcQcH5XZb_-71">
          <mxGeometry x="90" width="60" height="32" as="geometry" />
        </mxCell>
        <mxCell id="zDqILAsVGFjcQcH5XZb_-75" value="" style="shape=partialRectangle;html=1;whiteSpace=wrap;connectable=0;overflow=hidden;fillColor=none;top=0;left=0;bottom=0;right=0;" vertex="1" parent="zDqILAsVGFjcQcH5XZb_-71">
          <mxGeometry x="150" width="60" height="32" as="geometry" />
        </mxCell>
        <mxCell id="zDqILAsVGFjcQcH5XZb_-76" value="" style="shape=partialRectangle;html=1;whiteSpace=wrap;connectable=0;overflow=hidden;fillColor=none;top=0;left=0;bottom=0;right=0;" vertex="1" parent="zDqILAsVGFjcQcH5XZb_-71">
          <mxGeometry x="210" width="60" height="32" as="geometry" />
        </mxCell>
        <mxCell id="zDqILAsVGFjcQcH5XZb_-77" value="" style="shape=partialRectangle;html=1;whiteSpace=wrap;collapsible=0;dropTarget=0;pointerEvents=0;fillColor=none;top=0;left=0;bottom=0;right=0;points=[[0,0.5],[1,0.5]];portConstraint=eastwest;" vertex="1" parent="zDqILAsVGFjcQcH5XZb_-40">
          <mxGeometry y="186" width="270" height="31" as="geometry" />
        </mxCell>
        <mxCell id="zDqILAsVGFjcQcH5XZb_-78" value="7" style="shape=partialRectangle;html=1;whiteSpace=wrap;connectable=0;overflow=hidden;fillColor=none;top=0;left=0;bottom=0;right=0;strokeColor=none;" vertex="1" parent="zDqILAsVGFjcQcH5XZb_-77">
          <mxGeometry width="30" height="31" as="geometry" />
        </mxCell>
        <mxCell id="zDqILAsVGFjcQcH5XZb_-79" value="" style="shape=partialRectangle;html=1;whiteSpace=wrap;connectable=0;overflow=hidden;fillColor=none;top=0;left=0;bottom=0;right=0;" vertex="1" parent="zDqILAsVGFjcQcH5XZb_-77">
          <mxGeometry x="30" width="60" height="31" as="geometry" />
        </mxCell>
        <mxCell id="zDqILAsVGFjcQcH5XZb_-80" value="" style="shape=partialRectangle;html=1;whiteSpace=wrap;connectable=0;overflow=hidden;fillColor=none;top=0;left=0;bottom=0;right=0;" vertex="1" parent="zDqILAsVGFjcQcH5XZb_-77">
          <mxGeometry x="90" width="60" height="31" as="geometry" />
        </mxCell>
        <mxCell id="zDqILAsVGFjcQcH5XZb_-81" value="" style="shape=partialRectangle;html=1;whiteSpace=wrap;connectable=0;overflow=hidden;fillColor=none;top=0;left=0;bottom=0;right=0;" vertex="1" parent="zDqILAsVGFjcQcH5XZb_-77">
          <mxGeometry x="150" width="60" height="31" as="geometry" />
        </mxCell>
        <mxCell id="zDqILAsVGFjcQcH5XZb_-82" value="" style="shape=partialRectangle;html=1;whiteSpace=wrap;connectable=0;overflow=hidden;fillColor=none;top=0;left=0;bottom=0;right=0;" vertex="1" parent="zDqILAsVGFjcQcH5XZb_-77">
          <mxGeometry x="210" width="60" height="31" as="geometry" />
        </mxCell>
        <mxCell id="zDqILAsVGFjcQcH5XZb_-83" value="&lt;div align=&quot;left&quot;&gt;Room Temp. (20&lt;span class=&quot;aCOpRe&quot;&gt;&lt;span&gt;Â°C&lt;/span&gt;&lt;/span&gt;)&lt;/div&gt;" style="rounded=0;whiteSpace=wrap;html=1;shadow=0;sketch=0;strokeWidth=1;fillColor=none;align=left;" vertex="1" parent="1">
          <mxGeometry x="142.5" y="373" width="120" height="30" as="geometry" />
        </mxCell>
        <mxCell id="zDqILAsVGFjcQcH5XZb_-84" value="4&lt;span class=&quot;aCOpRe&quot;&gt;&lt;span&gt;Â°C&lt;br&gt;&lt;/span&gt;&lt;/span&gt;" style="rounded=0;whiteSpace=wrap;html=1;shadow=0;sketch=0;strokeWidth=1;fillColor=none;" vertex="1" parent="1">
          <mxGeometry x="142.5" y="221" width="120" height="30" as="geometry" />
        </mxCell>
        <mxCell id="zDqILAsVGFjcQcH5XZb_-85" value="" style="endArrow=classic;html=1;" edge="1" parent="1">
          <mxGeometry width="50" height="50" relative="1" as="geometry">
            <mxPoint x="112.5" y="460" as="sourcePoint" />
            <mxPoint x="382.5" y="460" as="targetPoint" />
          </mxGeometry>
        </mxCell>
        <mxCell id="zDqILAsVGFjcQcH5XZb_-86" value="30" style="text;html=1;align=center;verticalAlign=middle;resizable=0;points=[];autosize=1;" vertex="1" parent="1">
          <mxGeometry x="187.5" y="440" width="30" height="20" as="geometry" />
        </mxCell>
        <mxCell id="zDqILAsVGFjcQcH5XZb_-87" value="60" style="text;html=1;align=center;verticalAlign=middle;resizable=0;points=[];autosize=1;" vertex="1" parent="1">
          <mxGeometry x="248.5" y="440" width="30" height="20" as="geometry" />
        </mxCell>
        <mxCell id="zDqILAsVGFjcQcH5XZb_-88" value="90" style="text;html=1;align=center;verticalAlign=middle;resizable=0;points=[];autosize=1;" vertex="1" parent="1">
          <mxGeometry x="307.5" y="440" width="30" height="20" as="geometry" />
        </mxCell>
        <mxCell id="zDqILAsVGFjcQcH5XZb_-89" value="120" style="text;html=1;align=center;verticalAlign=middle;resizable=0;points=[];autosize=1;" vertex="1" parent="1">
          <mxGeometry x="359.5" y="438" width="40" height="20" as="geometry" />
        </mxCell>
        <mxCell id="zDqILAsVGFjcQcH5XZb_-90" value="0" style="text;html=1;align=center;verticalAlign=middle;resizable=0;points=[];autosize=1;" vertex="1" parent="1">
          <mxGeometry x="132.5" y="440" width="20" height="20" as="geometry" />
        </mxCell>
        <mxCell id="zDqILAsVGFjcQcH5XZb_-91" value="Time in days" style="text;html=1;align=center;verticalAlign=middle;resizable=0;points=[];autosize=1;" vertex="1" parent="1">
          <mxGeometry x="207.5" y="460" width="80" height="20" as="geometry" />
        </mxCell>
        <mxCell id="zDqILAsVGFjcQcH5XZb_-92" value="" style="rounded=0;whiteSpace=wrap;html=1;shadow=0;sketch=0;strokeWidth=1;fillColor=none;" vertex="1" parent="1">
          <mxGeometry x="142.5" y="252" width="120" height="30" as="geometry" />
        </mxCell>
        <mxCell id="zDqILAsVGFjcQcH5XZb_-93" value="4&lt;span class=&quot;aCOpRe&quot;&gt;&lt;span&gt;Â°C &lt;br&gt;&lt;/span&gt;&lt;/span&gt;" style="rounded=0;whiteSpace=wrap;html=1;shadow=0;sketch=0;strokeWidth=1;fillColor=none;" vertex="1" parent="1">
          <mxGeometry x="142.5" y="283" width="180" height="30" as="geometry" />
        </mxCell>
        <mxCell id="zDqILAsVGFjcQcH5XZb_-94" value="20-30&lt;span class=&quot;aCOpRe&quot;&gt;&lt;span&gt;Â°C&lt;/span&gt;&lt;/span&gt; " style="rounded=0;whiteSpace=wrap;html=1;shadow=0;sketch=0;strokeWidth=1;fillColor=none;strokeColor=none;" vertex="1" parent="1">
          <mxGeometry x="142.5" y="313.5" width="120" height="30" as="geometry" />
        </mxCell>
        <mxCell id="zDqILAsVGFjcQcH5XZb_-95" value="" style="rounded=0;whiteSpace=wrap;html=1;shadow=0;sketch=0;strokeWidth=1;glass=0;fillColor=none;" vertex="1" parent="1">
          <mxGeometry x="142.5" y="313.5" width="180" height="30" as="geometry" />
        </mxCell>
        <mxCell id="zDqILAsVGFjcQcH5XZb_-96" value="&lt;div align=&quot;left&quot;&gt;Room Temp (20&lt;span class=&quot;aCOpRe&quot;&gt;&lt;span&gt;Â°C)&lt;/span&gt;&lt;/span&gt;&lt;/div&gt;" style="rounded=0;whiteSpace=wrap;html=1;shadow=0;sketch=0;strokeWidth=1;fillColor=none;align=left;" vertex="1" parent="1">
          <mxGeometry x="142.5" y="403" width="180" height="30" as="geometry" />
        </mxCell>
        <mxCell id="zDqILAsVGFjcQcH5XZb_-97" value="" style="rounded=0;whiteSpace=wrap;html=1;shadow=0;sketch=0;strokeColor=#000000;strokeWidth=1;fillColor=none;" vertex="1" parent="1">
          <mxGeometry x="112.5" y="221" width="30" height="30" as="geometry" />
        </mxCell>
        <mxCell id="zDqILAsVGFjcQcH5XZb_-98" value="" style="rounded=0;whiteSpace=wrap;html=1;shadow=0;sketch=0;strokeColor=#000000;strokeWidth=1;fillColor=none;" vertex="1" parent="1">
          <mxGeometry x="112.5" y="252" width="30" height="30" as="geometry" />
        </mxCell>
        <mxCell id="zDqILAsVGFjcQcH5XZb_-99" value="" style="rounded=0;whiteSpace=wrap;html=1;shadow=0;sketch=0;strokeColor=#000000;strokeWidth=1;fillColor=none;" vertex="1" parent="1">
          <mxGeometry x="112.5" y="282.5" width="30" height="30" as="geometry" />
        </mxCell>
        <mxCell id="zDqILAsVGFjcQcH5XZb_-100" value="" style="rounded=0;whiteSpace=wrap;html=1;shadow=0;sketch=0;strokeColor=#000000;strokeWidth=1;fillColor=none;" vertex="1" parent="1">
          <mxGeometry x="112.5" y="313.5" width="30" height="30" as="geometry" />
        </mxCell>
        <mxCell id="zDqILAsVGFjcQcH5XZb_-101" style="edgeStyle=none;rounded=0;orthogonalLoop=1;jettySize=auto;html=1;exitX=0;exitY=0.5;exitDx=0;exitDy=0;" edge="1" parent="1" source="zDqILAsVGFjcQcH5XZb_-102">
          <mxGeometry relative="1" as="geometry">
            <mxPoint x="87.5" y="358.3333333333335" as="targetPoint" />
          </mxGeometry>
        </mxCell>
        <mxCell id="zDqILAsVGFjcQcH5XZb_-102" value="" style="rounded=0;whiteSpace=wrap;html=1;shadow=0;sketch=0;strokeColor=#000000;strokeWidth=1;fillColor=none;" vertex="1" parent="1">
          <mxGeometry x="112.5" y="343.5" width="30" height="30" as="geometry" />
        </mxCell>
        <mxCell id="zDqILAsVGFjcQcH5XZb_-103" value="" style="rounded=0;whiteSpace=wrap;html=1;shadow=0;sketch=0;strokeColor=#000000;strokeWidth=1;fillColor=none;" vertex="1" parent="1">
          <mxGeometry x="112.5" y="373" width="30" height="30" as="geometry" />
        </mxCell>
        <mxCell id="zDqILAsVGFjcQcH5XZb_-104" value="" style="rounded=0;whiteSpace=wrap;html=1;shadow=0;sketch=0;strokeColor=#000000;strokeWidth=1;fillColor=none;" vertex="1" parent="1">
          <mxGeometry x="112.5" y="403" width="30" height="30" as="geometry" />
        </mxCell>
        <mxCell id="zDqILAsVGFjcQcH5XZb_-105" value="" style="endArrow=none;dashed=1;html=1;dashPattern=1 3;strokeWidth=2;exitX=0.5;exitY=0.1;exitDx=0;exitDy=0;exitPerimeter=0;entryX=0.67;entryY=0.007;entryDx=0;entryDy=0;entryPerimeter=0;" edge="1" parent="1" source="zDqILAsVGFjcQcH5XZb_-118" target="zDqILAsVGFjcQcH5XZb_-93">
          <mxGeometry width="50" height="50" relative="1" as="geometry">
            <mxPoint x="412.5" y="480" as="sourcePoint" />
            <mxPoint x="262.5" y="350" as="targetPoint" />
          </mxGeometry>
        </mxCell>
        <mxCell id="zDqILAsVGFjcQcH5XZb_-106" value="" style="endArrow=none;dashed=1;html=1;dashPattern=1 3;strokeWidth=2;entryX=0.334;entryY=-0.02;entryDx=0;entryDy=0;entryPerimeter=0;" edge="1" parent="1" target="zDqILAsVGFjcQcH5XZb_-65">
          <mxGeometry width="50" height="50" relative="1" as="geometry">
            <mxPoint x="202.5" y="370" as="sourcePoint" />
            <mxPoint x="202.5" y="350" as="targetPoint" />
          </mxGeometry>
        </mxCell>
        <mxCell id="zDqILAsVGFjcQcH5XZb_-107" value="" style="endArrow=none;dashed=1;html=1;dashPattern=1 3;strokeWidth=2;exitX=0.5;exitY=0.1;exitDx=0;exitDy=0;exitPerimeter=0;" edge="1" parent="1" source="zDqILAsVGFjcQcH5XZb_-120">
          <mxGeometry width="50" height="50" relative="1" as="geometry">
            <mxPoint x="323.5" y="442" as="sourcePoint" />
            <mxPoint x="322.5" y="340" as="targetPoint" />
          </mxGeometry>
        </mxCell>
        <mxCell id="zDqILAsVGFjcQcH5XZb_-108" value="" style="endArrow=none;dashed=1;html=1;dashPattern=1 3;strokeWidth=2;entryX=0.5;entryY=0;entryDx=0;entryDy=0;" edge="1" parent="1" target="zDqILAsVGFjcQcH5XZb_-92">
          <mxGeometry width="50" height="50" relative="1" as="geometry">
            <mxPoint x="202.5" y="310" as="sourcePoint" />
            <mxPoint x="202" y="281" as="targetPoint" />
          </mxGeometry>
        </mxCell>
        <mxCell id="zDqILAsVGFjcQcH5XZb_-109" value="" style="shape=curlyBracket;whiteSpace=wrap;html=1;rounded=1;shadow=0;sketch=0;strokeColor=#000000;strokeWidth=1;fillColor=none;" vertex="1" parent="1">
          <mxGeometry x="84.5" y="220" width="20" height="123.5" as="geometry" />
        </mxCell>
        <mxCell id="zDqILAsVGFjcQcH5XZb_-110" value="" style="shape=curlyBracket;whiteSpace=wrap;html=1;rounded=1;shadow=0;sketch=0;strokeColor=#000000;strokeWidth=1;fillColor=none;" vertex="1" parent="1">
          <mxGeometry x="84.5" y="373" width="20" height="60" as="geometry" />
        </mxCell>
        <mxCell id="zDqILAsVGFjcQcH5XZb_-111" value="With Moisture" style="text;html=1;align=center;verticalAlign=middle;resizable=0;points=[];autosize=1;rotation=-90;" vertex="1" parent="1">
          <mxGeometry x="30" y="263" width="90" height="20" as="geometry" />
        </mxCell>
        <mxCell id="zDqILAsVGFjcQcH5XZb_-112" value="&lt;div&gt;Dry&lt;br&gt;&lt;/div&gt;" style="text;html=1;align=center;verticalAlign=middle;resizable=0;points=[];autosize=1;rotation=-90;" vertex="1" parent="1">
          <mxGeometry x="60.5" y="396" width="29" height="18" as="geometry" />
        </mxCell>
        <mxCell id="zDqILAsVGFjcQcH5XZb_-113" value="" style="verticalLabelPosition=bottom;verticalAlign=top;html=1;shape=mxgraph.basic.star;shadow=0;sketch=0;strokeColor=#82b366;strokeWidth=1;fillColor=#d5e8d4;" vertex="1" parent="1">
          <mxGeometry x="253.5" y="228.5" width="20" height="15" as="geometry" />
        </mxCell>
        <mxCell id="zDqILAsVGFjcQcH5XZb_-114" value="" style="verticalLabelPosition=bottom;verticalAlign=top;html=1;shape=mxgraph.basic.star;shadow=0;sketch=0;strokeColor=#82b366;strokeWidth=1;fillColor=#d5e8d4;" vertex="1" parent="1">
          <mxGeometry x="253.5" y="258.5" width="20" height="15" as="geometry" />
        </mxCell>
        <mxCell id="zDqILAsVGFjcQcH5XZb_-115" value="" style="verticalLabelPosition=bottom;verticalAlign=top;html=1;shape=mxgraph.basic.star;shadow=0;sketch=0;strokeColor=#82b366;strokeWidth=1;fillColor=#d5e8d4;" vertex="1" parent="1">
          <mxGeometry x="312.5" y="289" width="20" height="15" as="geometry" />
        </mxCell>
        <mxCell id="zDqILAsVGFjcQcH5XZb_-116" value="" style="verticalLabelPosition=bottom;verticalAlign=top;html=1;shape=mxgraph.basic.star;shadow=0;sketch=0;strokeColor=#82b366;strokeWidth=1;fillColor=#d5e8d4;" vertex="1" parent="1">
          <mxGeometry x="312.5" y="321" width="20" height="15" as="geometry" />
        </mxCell>
        <mxCell id="zDqILAsVGFjcQcH5XZb_-117" value="" style="verticalLabelPosition=bottom;verticalAlign=top;html=1;shape=mxgraph.basic.star;shadow=0;sketch=0;strokeColor=#82b366;strokeWidth=1;fillColor=#d5e8d4;" vertex="1" parent="1">
          <mxGeometry x="132.5" y="350" width="20" height="15" as="geometry" />
        </mxCell>
        <mxCell id="zDqILAsVGFjcQcH5XZb_-118" value="" style="verticalLabelPosition=bottom;verticalAlign=top;html=1;shape=mxgraph.basic.star;shadow=0;sketch=0;strokeColor=#82b366;strokeWidth=1;fillColor=#d5e8d4;" vertex="1" parent="1">
          <mxGeometry x="253.5" y="380.5" width="20" height="15" as="geometry" />
        </mxCell>
        <mxCell id="zDqILAsVGFjcQcH5XZb_-119" value="" style="endArrow=none;dashed=1;html=1;dashPattern=1 3;strokeWidth=2;entryX=1;entryY=1;entryDx=0;entryDy=0;" edge="1" parent="1" target="zDqILAsVGFjcQcH5XZb_-83">
          <mxGeometry width="50" height="50" relative="1" as="geometry">
            <mxPoint x="262.5" y="442" as="sourcePoint" />
            <mxPoint x="264.53999999999996" y="279" as="targetPoint" />
          </mxGeometry>
        </mxCell>
        <mxCell id="zDqILAsVGFjcQcH5XZb_-120" value="" style="verticalLabelPosition=bottom;verticalAlign=top;html=1;shape=mxgraph.basic.star;shadow=0;sketch=0;strokeColor=#82b366;strokeWidth=1;fillColor=#d5e8d4;" vertex="1" parent="1">
          <mxGeometry x="312.5" y="414" width="20" height="15" as="geometry" />
        </mxCell>
        <mxCell id="zDqILAsVGFjcQcH5XZb_-121" value="" style="endArrow=none;dashed=1;html=1;dashPattern=1 3;strokeWidth=2;" edge="1" parent="1" target="zDqILAsVGFjcQcH5XZb_-120">
          <mxGeometry width="50" height="50" relative="1" as="geometry">
            <mxPoint x="322.5" y="442" as="sourcePoint" />
            <mxPoint x="322.5" y="340" as="targetPoint" />
          </mxGeometry>
        </mxCell>
        <mxCell id="zDqILAsVGFjcQcH5XZb_-122" value="" style="verticalLabelPosition=bottom;verticalAlign=top;html=1;shape=mxgraph.basic.star;shadow=0;sketch=0;strokeColor=#82b366;strokeWidth=1;fillColor=#d5e8d4;" vertex="1" parent="1">
          <mxGeometry x="142.5" y="490" width="20" height="15" as="geometry" />
        </mxCell>
        <mxCell id="zDqILAsVGFjcQcH5XZb_-123" value="= Time of planting" style="text;html=1;align=center;verticalAlign=middle;resizable=0;points=[];autosize=1;" vertex="1" parent="1">
          <mxGeometry x="162.5" y="487.5" width="110" height="20" as="geometry" />
        </mxCell>
        <mxCell id="zDqILAsVGFjcQcH5XZb_-124" value="&lt;b&gt;&lt;font style=&quot;font-size: 14px&quot;&gt;Juniper Germination Trial- November&lt;/font&gt;&lt;/b&gt;" style="text;html=1;align=center;verticalAlign=middle;resizable=0;points=[];autosize=1;" vertex="1" parent="1">
          <mxGeometry x="112.5" y="194" width="257" height="19" as="geometry" />
        </mxCell>
        <mxCell id="zDqILAsVGFjcQcH5XZb_-125" value="" style="endArrow=none;dashed=1;html=1;dashPattern=1 3;strokeWidth=2;" edge="1" parent="1" source="zDqILAsVGFjcQcH5XZb_-86">
          <mxGeometry width="50" height="50" relative="1" as="geometry">
            <mxPoint x="201.5" y="440" as="sourcePoint" />
            <mxPoint x="201.5" y="435" as="targetPoint" />
          </mxGeometry>
        </mxCell>
        <mxCell id="zDqILAsVGFjcQcH5XZb_-126" value="Immediate&lt;br&gt; Planting" style="text;html=1;align=center;verticalAlign=middle;resizable=0;points=[];autosize=1;rotation=-90;" vertex="1" parent="1">
          <mxGeometry x="34.5" y="342.5" width="66" height="32" as="geometry" />
        </mxCell>
        <mxCell id="zDqILAsVGFjcQcH5XZb_-127" value="&lt;div align=&quot;center&quot;&gt;Outside in cones&lt;br&gt;&lt;/div&gt;" style="rounded=0;whiteSpace=wrap;html=1;shadow=0;sketch=0;strokeWidth=1;fillColor=none;align=center;" vertex="1" parent="1">
          <mxGeometry x="518.5" y="343.25" width="235.5" height="30" as="geometry" />
        </mxCell>
        <mxCell id="zDqILAsVGFjcQcH5XZb_-128" value="4&lt;span class=&quot;aCOpRe&quot;&gt;&lt;span&gt;Â°C&lt;br&gt;&lt;/span&gt;&lt;/span&gt;" style="rounded=0;whiteSpace=wrap;html=1;shadow=0;sketch=0;strokeWidth=1;fillColor=none;" vertex="1" parent="1">
          <mxGeometry x="518.5" y="219.75" width="59.5" height="30" as="geometry" />
        </mxCell>
        <mxCell id="zDqILAsVGFjcQcH5XZb_-129" value="" style="endArrow=classic;html=1;" edge="1" parent="1">
          <mxGeometry width="50" height="50" relative="1" as="geometry">
            <mxPoint x="488.5" y="426" as="sourcePoint" />
            <mxPoint x="758.5" y="426" as="targetPoint" />
          </mxGeometry>
        </mxCell>
        <mxCell id="zDqILAsVGFjcQcH5XZb_-130" value="30" style="text;html=1;align=center;verticalAlign=middle;resizable=0;points=[];autosize=1;" vertex="1" parent="1">
          <mxGeometry x="563.5" y="406" width="30" height="20" as="geometry" />
        </mxCell>
        <mxCell id="zDqILAsVGFjcQcH5XZb_-131" value="60" style="text;html=1;align=center;verticalAlign=middle;resizable=0;points=[];autosize=1;" vertex="1" parent="1">
          <mxGeometry x="624.5" y="406" width="30" height="20" as="geometry" />
        </mxCell>
        <mxCell id="zDqILAsVGFjcQcH5XZb_-132" value="90" style="text;html=1;align=center;verticalAlign=middle;resizable=0;points=[];autosize=1;" vertex="1" parent="1">
          <mxGeometry x="683.5" y="406" width="30" height="20" as="geometry" />
        </mxCell>
        <mxCell id="zDqILAsVGFjcQcH5XZb_-133" value="120" style="text;html=1;align=center;verticalAlign=middle;resizable=0;points=[];autosize=1;" vertex="1" parent="1">
          <mxGeometry x="734.5" y="406.25" width="40" height="20" as="geometry" />
        </mxCell>
        <mxCell id="zDqILAsVGFjcQcH5XZb_-134" value="0" style="text;html=1;align=center;verticalAlign=middle;resizable=0;points=[];autosize=1;" vertex="1" parent="1">
          <mxGeometry x="508.5" y="406" width="20" height="20" as="geometry" />
        </mxCell>
        <mxCell id="zDqILAsVGFjcQcH5XZb_-135" value="Time in days" style="text;html=1;align=center;verticalAlign=middle;resizable=0;points=[];autosize=1;" vertex="1" parent="1">
          <mxGeometry x="583.5" y="426" width="80" height="20" as="geometry" />
        </mxCell>
        <mxCell id="zDqILAsVGFjcQcH5XZb_-136" value="" style="rounded=0;whiteSpace=wrap;html=1;shadow=0;sketch=0;strokeWidth=1;fillColor=none;" vertex="1" parent="1">
          <mxGeometry x="518.5" y="250.75" width="59.5" height="30" as="geometry" />
        </mxCell>
        <mxCell id="zDqILAsVGFjcQcH5XZb_-137" value="" style="rounded=0;whiteSpace=wrap;html=1;shadow=0;sketch=0;strokeColor=#000000;strokeWidth=1;fillColor=none;" vertex="1" parent="1">
          <mxGeometry x="488.5" y="219.75" width="30" height="30" as="geometry" />
        </mxCell>
        <mxCell id="zDqILAsVGFjcQcH5XZb_-138" value="" style="rounded=0;whiteSpace=wrap;html=1;shadow=0;sketch=0;strokeColor=#000000;strokeWidth=1;fillColor=none;" vertex="1" parent="1">
          <mxGeometry x="488.5" y="250.75" width="30" height="30" as="geometry" />
        </mxCell>
        <mxCell id="zDqILAsVGFjcQcH5XZb_-139" value="" style="rounded=0;whiteSpace=wrap;html=1;shadow=0;sketch=0;strokeColor=#000000;strokeWidth=1;fillColor=none;" vertex="1" parent="1">
          <mxGeometry x="488.5" y="281.25" width="30" height="30" as="geometry" />
        </mxCell>
        <mxCell id="zDqILAsVGFjcQcH5XZb_-140" value="" style="rounded=0;whiteSpace=wrap;html=1;shadow=0;sketch=0;strokeColor=#000000;strokeWidth=1;fillColor=none;" vertex="1" parent="1">
          <mxGeometry x="488.5" y="312.25" width="30" height="30" as="geometry" />
        </mxCell>
        <mxCell id="zDqILAsVGFjcQcH5XZb_-141" value="" style="rounded=0;whiteSpace=wrap;html=1;shadow=0;sketch=0;strokeColor=#000000;strokeWidth=1;fillColor=none;" vertex="1" parent="1">
          <mxGeometry x="488.5" y="342.25" width="30" height="30" as="geometry" />
        </mxCell>
        <mxCell id="zDqILAsVGFjcQcH5XZb_-142" style="edgeStyle=none;rounded=0;orthogonalLoop=1;jettySize=auto;html=1;exitX=0;exitY=0.5;exitDx=0;exitDy=0;" edge="1" parent="1" source="zDqILAsVGFjcQcH5XZb_-143">
          <mxGeometry relative="1" as="geometry">
            <mxPoint x="464" y="387.0689655172414" as="targetPoint" />
          </mxGeometry>
        </mxCell>
        <mxCell id="zDqILAsVGFjcQcH5XZb_-143" value="" style="rounded=0;whiteSpace=wrap;html=1;shadow=0;sketch=0;strokeColor=#000000;strokeWidth=1;fillColor=none;" vertex="1" parent="1">
          <mxGeometry x="488.5" y="371.75" width="30" height="30" as="geometry" />
        </mxCell>
        <mxCell id="zDqILAsVGFjcQcH5XZb_-144" value="" style="shape=curlyBracket;whiteSpace=wrap;html=1;rounded=1;shadow=0;sketch=0;strokeColor=#000000;strokeWidth=1;fillColor=none;" vertex="1" parent="1">
          <mxGeometry x="460.5" y="218.75" width="20" height="123.5" as="geometry" />
        </mxCell>
        <mxCell id="zDqILAsVGFjcQcH5XZb_-145" value="With Moisture" style="text;html=1;align=center;verticalAlign=middle;resizable=0;points=[];autosize=1;rotation=-90;" vertex="1" parent="1">
          <mxGeometry x="406" y="261.75" width="90" height="20" as="geometry" />
        </mxCell>
        <mxCell id="zDqILAsVGFjcQcH5XZb_-146" value="" style="verticalLabelPosition=bottom;verticalAlign=top;html=1;shape=mxgraph.basic.star;shadow=0;sketch=0;strokeColor=#82b366;strokeWidth=1;fillColor=#d5e8d4;" vertex="1" parent="1">
          <mxGeometry x="568.5" y="227.25" width="20" height="15" as="geometry" />
        </mxCell>
        <mxCell id="zDqILAsVGFjcQcH5XZb_-147" value="" style="verticalLabelPosition=bottom;verticalAlign=top;html=1;shape=mxgraph.basic.star;shadow=0;sketch=0;strokeColor=#82b366;strokeWidth=1;fillColor=#d5e8d4;" vertex="1" parent="1">
          <mxGeometry x="568" y="257.25" width="20" height="15" as="geometry" />
        </mxCell>
        <mxCell id="zDqILAsVGFjcQcH5XZb_-148" value="" style="verticalLabelPosition=bottom;verticalAlign=top;html=1;shape=mxgraph.basic.star;shadow=0;sketch=0;strokeColor=#82b366;strokeWidth=1;fillColor=#d5e8d4;" vertex="1" parent="1">
          <mxGeometry x="744" y="287.75" width="20" height="15" as="geometry" />
        </mxCell>
        <mxCell id="zDqILAsVGFjcQcH5XZb_-149" value="" style="verticalLabelPosition=bottom;verticalAlign=top;html=1;shape=mxgraph.basic.star;shadow=0;sketch=0;strokeColor=#82b366;strokeWidth=1;fillColor=#d5e8d4;" vertex="1" parent="1">
          <mxGeometry x="744" y="319.75" width="20" height="15" as="geometry" />
        </mxCell>
        <mxCell id="zDqILAsVGFjcQcH5XZb_-150" value="" style="verticalLabelPosition=bottom;verticalAlign=top;html=1;shape=mxgraph.basic.star;shadow=0;sketch=0;strokeColor=#82b366;strokeWidth=1;fillColor=#d5e8d4;" vertex="1" parent="1">
          <mxGeometry x="744" y="348.75" width="20" height="15" as="geometry" />
        </mxCell>
        <mxCell id="zDqILAsVGFjcQcH5XZb_-151" value="" style="verticalLabelPosition=bottom;verticalAlign=top;html=1;shape=mxgraph.basic.star;shadow=0;sketch=0;strokeColor=#82b366;strokeWidth=1;fillColor=#d5e8d4;" vertex="1" parent="1">
          <mxGeometry x="509" y="379.25" width="20" height="15" as="geometry" />
        </mxCell>
        <mxCell id="zDqILAsVGFjcQcH5XZb_-152" value="" style="verticalLabelPosition=bottom;verticalAlign=top;html=1;shape=mxgraph.basic.star;shadow=0;sketch=0;strokeColor=#82b366;strokeWidth=1;fillColor=#d5e8d4;" vertex="1" parent="1">
          <mxGeometry x="518.5" y="456" width="20" height="15" as="geometry" />
        </mxCell>
        <mxCell id="zDqILAsVGFjcQcH5XZb_-153" value="= Time of planting" style="text;html=1;align=center;verticalAlign=middle;resizable=0;points=[];autosize=1;" vertex="1" parent="1">
          <mxGeometry x="538.5" y="453.5" width="110" height="20" as="geometry" />
        </mxCell>
        <mxCell id="zDqILAsVGFjcQcH5XZb_-154" value="&lt;b&gt;&lt;font style=&quot;font-size: 14px&quot;&gt;Juniper Germination Trial- February&lt;/font&gt;&lt;/b&gt;" style="text;html=1;align=center;verticalAlign=middle;resizable=0;points=[];autosize=1;" vertex="1" parent="1">
          <mxGeometry x="488.5" y="195" width="249" height="19" as="geometry" />
        </mxCell>
        <mxCell id="zDqILAsVGFjcQcH5XZb_-155" value="Immediate&lt;br&gt; Planting" style="text;html=1;align=center;verticalAlign=middle;resizable=0;points=[];autosize=1;rotation=-90;" vertex="1" parent="1">
          <mxGeometry x="415" y="373" width="66" height="32" as="geometry" />
        </mxCell>
        <mxCell id="zDqILAsVGFjcQcH5XZb_-156" value="" style="endArrow=none;dashed=1;html=1;dashPattern=1 3;strokeWidth=2;entryX=0.25;entryY=0;entryDx=0;entryDy=0;" edge="1" parent="1" source="zDqILAsVGFjcQcH5XZb_-130" target="zDqILAsVGFjcQcH5XZb_-38">
          <mxGeometry width="50" height="50" relative="1" as="geometry">
            <mxPoint x="704" y="426" as="sourcePoint" />
            <mxPoint x="754" y="376" as="targetPoint" />
          </mxGeometry>
        </mxCell>
        <mxCell id="zDqILAsVGFjcQcH5XZb_-157" value="" style="endArrow=none;dashed=1;html=1;dashPattern=1 3;strokeWidth=2;" edge="1" parent="1" target="zDqILAsVGFjcQcH5XZb_-131">
          <mxGeometry width="50" height="50" relative="1" as="geometry">
            <mxPoint x="640" y="374" as="sourcePoint" />
            <mxPoint x="640" y="406" as="targetPoint" />
          </mxGeometry>
        </mxCell>
        <mxCell id="zDqILAsVGFjcQcH5XZb_-158" value="" style="endArrow=none;dashed=1;html=1;dashPattern=1 3;strokeWidth=2;exitX=1;exitY=1;exitDx=0;exitDy=0;" edge="1" parent="1" source="zDqILAsVGFjcQcH5XZb_-127" target="zDqILAsVGFjcQcH5XZb_-133">
          <mxGeometry width="50" height="50" relative="1" as="geometry">
            <mxPoint x="753.38" y="376" as="sourcePoint" />
            <mxPoint x="752.9990476190477" y="408" as="targetPoint" />
          </mxGeometry>
        </mxCell>
        <mxCell id="zDqILAsVGFjcQcH5XZb_-159" value="" style="endArrow=none;dashed=1;html=1;dashPattern=1 3;strokeWidth=2;" edge="1" parent="1" target="zDqILAsVGFjcQcH5XZb_-132">
          <mxGeometry width="50" height="50" relative="1" as="geometry">
            <mxPoint x="699.3800000000001" y="376" as="sourcePoint" />
            <mxPoint x="698.9990476190477" y="408" as="targetPoint" />
          </mxGeometry>
        </mxCell>
        <mxCell id="zDqILAsVGFjcQcH5XZb_-160" value="&lt;div align=&quot;left&quot;&gt;All trials will include&lt;br&gt;&lt;/div&gt;&lt;div align=&quot;left&quot;&gt; +scarification &amp;amp;&lt;br&gt;&lt;/div&gt;&lt;div align=&quot;left&quot;&gt;-scarification treatments&lt;br&gt;&lt;/div&gt;" style="text;html=1;align=center;verticalAlign=middle;resizable=0;points=[];autosize=1;" vertex="1" parent="1">
          <mxGeometry x="600" y="222" width="137" height="46" as="geometry" />
        </mxCell>
      </root>
    </mxGraphModel>
  </diagram>
</mxfile>
